<svg version="1.0" xmlns="http://www.w3.org/2000/svg"
 width="1254.000000pt" height="1254.000000pt" viewBox="0 0 1254.000000 1254.000000"
 preserveAspectRatio="xMidYMid meet">

<g transform="translate(0.000000,1254.000000) scale(0.100000,-0.100000)"
fill="#000000" stroke="none">
<path d="M0 6270 l0 -6270 6270 0 6270 0 0 6270 0 6270 -6270 0 -6270 0 0
-6270z m7798 5803 c-841 -2 -2215 -2 -3055 0 -841 1 -153 2 1527 2 1680 0
2368 -1 1528 -2z m-4665 -10 c-7 -2 -21 -2 -30 0 -10 3 -4 5 12 5 17 0 24 -2
18 -5z m-130 -10 c-7 -2 -19 -2 -25 0 -7 3 -2 5 12 5 14 0 19 -2 13 -5z m44 1
c-3 -3 -12 -4 -19 -1 -8 3 -5 6 6 6 11 1 17 -2 13 -5z m6463 -17 c385 -47 709
-144 1006 -303 717 -382 1233 -1097 1373 -1904 45 -259 45 -198 45 -2930 1
-1433 -1 -2830 -4 -3105 -3 -287 -7 290 -10 1355 -3 1020 -3 1918 -2 1995 2
77 -1 160 -6 185 l-10 45 -1 -44 -1 -44 -20 23 c-11 13 -21 39 -22 59 -1 20
-5 -7 -8 -59 -3 -52 -7 172 -8 499 -1 327 -4 592 -7 589 -3 -2 -7 -1179 -10
-2614 -3 -1435 -7 -2667 -10 -2737 -20 -511 -212 -1023 -540 -1442 -431 -549
-1006 -874 -1717 -972 -113 -15 -381 -17 -3158 -20 -3138 -4 -3256 -3 -3510
36 -552 86 -1042 339 -1431 737 -400 411 -641 898 -725 1464 l-14 95 5 -75 c2
-41 7 -91 10 -110 l5 -35 -11 37 c-7 22 -17 38 -26 38 -10 0 -13 -6 -9 -16 3
-8 2 -12 -4 -9 -6 3 -10 15 -10 26 0 10 -4 19 -10 19 -5 0 -11 12 -11 28 -1
18 -3 21 -6 9 -9 -34 53 -347 68 -347 5 0 6 -6 3 -14 -3 -8 4 -24 15 -35 14
-14 20 -30 17 -47 -5 -26 34 -157 73 -248 12 -27 20 -51 18 -53 -18 -17 -148
369 -182 542 -63 313 -59 42 -63 3530 -3 3242 -2 3324 34 3570 92 621 391
1181 852 1598 317 286 675 482 1088 596 181 50 397 83 659 100 66 4 1472 7
3125 7 2798 -1 3015 -3 3150 -19z m43 16 c-7 -2 -19 -2 -25 0 -7 3 -2 5 12 5
14 0 19 -2 13 -5z m-6658 -12 c-11 -9 -112 -25 -103 -15 3 3 28 9 55 14 26 4
50 8 53 9 2 0 0 -3 -5 -8z m6813 -8 c-10 -2 -26 -2 -35 0 -10 3 -2 5 17 5 19
0 27 -2 18 -5z m-6928 -13 c0 -5 -5 -10 -11 -10 -5 0 -7 5 -4 10 3 6 8 10 11
10 2 0 4 -4 4 -10z m7037 -6 c-3 -3 -12 -4 -19 -1 -8 3 -5 6 6 6 11 1 17 -2
13 -5z m-7137 -14 c0 -5 -5 -10 -11 -10 -5 0 -7 5 -4 10 3 6 8 10 11 10 2 0 4
-4 4 -10z m-120 -30 c0 -5 -10 -10 -22 -9 -22 0 -22 1 -3 9 11 5 21 9 23 9 1
1 2 -3 2 -9z m7417 4 c-3 -3 -12 -4 -19 -1 -8 3 -5 6 6 6 11 1 17 -2 13 -5z
m79 -22 c-7 -7 -66 9 -66 18 0 4 16 3 35 -3 19 -6 33 -12 31 -15z m99 -32 c3
-6 -1 -7 -9 -4 -18 7 -21 14 -7 14 6 0 13 -4 16 -10z m40 -18 c-3 -3 -11 0
-18 7 -9 10 -8 11 6 5 10 -3 15 -9 12 -12z m-7845 -2 c-8 -5 -22 -9 -30 -9
-10 0 -8 3 5 9 27 12 43 12 25 0z m-70 -24 c0 -2 -7 -6 -15 -10 -8 -3 -15 -1
-15 4 0 6 7 10 15 10 8 0 15 -2 15 -4z m-41 -20 c-2 -2 -15 -7 -29 -10 l-25
-7 25 15 c21 12 42 14 29 2z m8091 -1 c14 -8 21 -14 15 -14 -5 0 -21 6 -35 14
-14 8 -20 14 -15 14 6 0 21 -6 35 -14z m-8151 -19 c-2 -2 -15 -9 -29 -15 -24
-11 -24 -11 -6 3 16 13 49 24 35 12z m-80 -40 c-2 -2 -15 -9 -29 -16 -23 -12
-24 -12 -11 3 7 10 20 17 29 17 8 0 13 -2 11 -4z m8596 -131 c30 -20 55 -38
55 -41 0 -4 -12 2 -27 11 -14 10 -41 26 -60 37 -30 18 -40 28 -28 28 2 0 29
-16 60 -35z m-8843 -7 c-7 -7 -12 -8 -12 -2 0 14 12 26 19 19 2 -3 -1 -11 -7
-17z m-32 -18 c-35 -24 -54 -31 -30 -11 14 11 30 21 35 21 6 0 3 -5 -5 -10z
m9045 -90 c3 -5 1 -10 -4 -10 -6 0 -11 5 -11 10 0 6 2 10 4 10 3 0 8 -4 11
-10z m-9225 -34 c0 -2 -8 -10 -17 -17 -16 -13 -17 -12 -4 4 13 16 21 21 21 13z
m-40 -36 c0 -5 -5 -10 -11 -10 -5 0 -7 5 -4 10 3 6 8 10 11 10 2 0 4 -4 4 -10z
m-130 -103 c0 -1 -26 -27 -57 -57 l-58 -55 55 58 c50 53 60 62 60 54z m-190
-197 c-34 -38 -65 -70 -68 -70 -7 0 20 32 77 93 67 70 62 57 -9 -23z m-112
-130 c-7 -10 -14 -17 -17 -15 -4 4 18 35 25 35 2 0 -1 -9 -8 -20z m-158 -224
c0 -2 -8 -10 -17 -17 -16 -13 -17 -12 -4 4 13 16 21 21 21 13z m-37 -51 c-3
-9 -8 -14 -10 -11 -3 3 -2 9 2 15 9 16 15 13 8 -4z m-93 -175 c0 -5 -5 -10
-11 -10 -5 0 -7 5 -4 10 3 6 8 10 11 10 2 0 4 -4 4 -10z m-10 -24 c0 -3 -4 -8
-10 -11 -5 -3 -10 -1 -10 4 0 6 5 11 10 11 6 0 10 -2 10 -4z m-47 -81 c-3 -9
-8 -14 -10 -11 -3 3 -2 9 2 15 9 16 15 13 8 -4z m11075 -3422 c0 -71 -3 -112
-5 -93 -3 19 -9 40 -15 47 -5 7 -7 17 -3 23 3 5 1 10 -4 10 -6 0 -11 14 -11
30 0 19 5 29 13 28 8 -2 13 12 15 40 6 85 12 39 10 -85z m-51 -85 c-2 -35 -3
-7 -3 62 0 69 1 97 3 63 2 -35 2 -91 0 -125z m33 152 c0 -5 -2 -10 -4 -10 -3
0 -8 5 -11 10 -3 6 -1 10 4 10 6 0 11 -4 11 -10z m-11133 -4462 c-3 -7 -5 -2
-5 12 0 14 2 19 5 13 2 -7 2 -19 0 -25z m10 -50 c-3 -8 -6 -5 -6 6 -1 11 2 17
5 13 3 -3 4 -12 1 -19z m39 -153 c-4 -11 -23 54 -31 106 -3 18 4 5 15 -31 11
-36 18 -69 16 -75z m33 -90 c0 -5 -4 -3 -9 5 -5 8 -9 22 -9 30 0 16 17 -16 18
-35z m70 -372 c23 -46 39 -83 36 -83 -5 0 -85 156 -85 166 0 12 7 1 49 -83z
m105 -194 c35 -59 50 -93 23 -54 -26 38 -69 115 -64 115 3 0 21 -27 41 -61z
m241 -339 c10 -11 16 -20 13 -20 -3 0 -13 9 -23 20 -10 11 -16 20 -13 20 3 0
13 -9 23 -20z m55 -65 c13 -14 21 -25 18 -25 -2 0 -15 11 -28 25 -13 14 -21
25 -18 25 2 0 15 -11 28 -25z m71 -82 c13 -16 12 -17 -3 -4 -10 7 -18 15 -18
17 0 8 8 3 21 -13z m139 -128 c19 -19 32 -35 29 -35 -3 0 -20 16 -39 35 -19
19 -32 35 -29 35 3 0 20 -16 39 -35z m191 -162 c13 -16 12 -17 -3 -4 -17 13
-22 21 -14 21 2 0 10 -8 17 -17z m197 -128 c34 -21 62 -40 62 -42 0 -5 -1 -5
-77 42 -35 21 -63 40 -63 42 0 5 1 5 78 -42z m152 -91 c0 -2 -9 0 -20 6 -11 6
-20 13 -20 16 0 2 9 0 20 -6 11 -6 20 -13 20 -16z m160 -74 c19 -11 31 -19 25
-19 -5 0 -26 8 -45 19 -19 11 -30 19 -25 19 6 0 26 -8 45 -19z m128 -50 c34
-13 61 -25 59 -27 -5 -4 -138 45 -146 54 -6 7 -5 6 87 -27z m294 -89 c68 -17
143 -34 168 -40 l45 -10 -55 5 c-74 8 -332 74 -287 74 3 0 61 -13 129 -29z
m506 -8 c-10 -2 -26 -2 -35 0 -10 3 -2 5 17 5 19 0 27 -2 18 -5z m280 -10
c-26 -2 -71 -2 -100 0 -29 2 -8 3 47 3 55 0 79 -1 53 -3z m1010 0 c-169 -2
-448 -2 -620 0 -172 1 -34 2 307 2 341 0 482 -1 313 -2z m759 1 c-3 -3 -12 -4
-19 -1 -8 3 -5 6 6 6 11 1 17 -2 13 -5z m216 -1 c-18 -2 -48 -2 -65 0 -18 2
-4 4 32 4 36 0 50 -2 33 -4z m115 0 c-16 -2 -40 -2 -55 0 -16 2 -3 4 27 4 30
0 43 -2 28 -4z m179 1 c-3 -3 -12 -4 -19 -1 -8 3 -5 6 6 6 11 1 17 -2 13 -5z
m-2692 -51 c115 -14 333 -17 1870 -20 957 -2 1796 -4 1865 -6 69 -1 -680 -4
-1664 -5 -1791 -2 -1963 1 -2156 33 -107 18 -66 17 85 -2z m4142 -29 c-3 -3
-12 -4 -19 -1 -8 3 -5 6 6 6 11 1 17 -2 13 -5z m56 -1 c-7 -2 -21 -2 -30 0
-10 3 -4 5 12 5 17 0 24 -2 18 -5z m770 0 c-7 -2 -19 -2 -25 0 -7 3 -2 5 12 5
14 0 19 -2 13 -5z"/>
<path d="M3100 11905 c-562 -54 -1018 -234 -1425 -562 -107 -86 -294 -274
-387 -388 -146 -180 -319 -489 -403 -718 -71 -194 -123 -442 -144 -684 -8 -83
-11 -1134 -11 -3305 0 -3420 -2 -3295 50 -3562 126 -649 539 -1259 1105 -1632
372 -245 790 -382 1264 -414 108 -8 1115 -10 3246 -8 3375 4 3114 0 3392 58
483 101 937 350 1278 701 442 455 684 983 735 1604 8 103 10 999 8 3355 -4
2953 -5 3224 -21 3325 -76 496 -231 878 -503 1237 -93 122 -334 367 -454 460
-377 292 -756 445 -1305 530 -121 18 -6234 21 -6425 3z m3695 -1355 c403 -66
644 -179 876 -410 336 -334 418 -715 232 -1086 -23 -46 -34 -77 -28 -83 6 -4
93 -45 195 -91 145 -65 356 -165 367 -174 0 0 11 -84 23 -186 20 -177 22 -186
49 -210 32 -29 364 -311 721 -611 135 -113 251 -213 257 -221 11 -12 -7 -44
-104 -186 l-116 -172 -34 35 c-60 62 -382 206 -410 184 -30 -25 -9 -49 163
-190 l177 -144 -6 -85 c-3 -47 -15 -114 -27 -149 -21 -62 -89 -180 -163 -279
-34 -48 -42 -53 -65 -47 -124 32 -323 21 -512 -26 -136 -34 -150 -35 -221 -10
-182 62 -404 235 -581 451 -33 40 -38 43 -53 30 -16 -13 -17 -28 -12 -125 3
-60 15 -166 27 -233 12 -68 19 -127 15 -130 -12 -13 -255 -14 -357 -2 -291 34
-504 135 -690 328 -180 187 -252 380 -267 717 -4 88 -11 166 -15 173 -4 7 -16
12 -27 12 -24 0 -50 -56 -78 -168 -112 -442 22 -906 388 -1344 136 -162 338
-340 666 -586 376 -283 548 -441 677 -622 198 -277 264 -542 243 -962 l-7
-148 -1793 0 -1793 0 -6 98 c-3 53 -11 149 -16 212 l-11 115 -62 54 c-116 101
-282 277 -349 372 -344 483 -446 1086 -302 1789 95 461 318 963 578 1300 109
140 362 394 518 518 114 90 343 248 427 294 42 23 41 61 -1 66 -59 7 -258 -62
-432 -149 -395 -199 -818 -643 -1046 -1098 -127 -255 -257 -644 -276 -828 -4
-35 -10 -63 -14 -63 -9 0 -47 137 -66 240 -21 108 -29 413 -15 550 21 221 97
473 211 705 174 356 398 594 770 817 383 231 704 332 1225 386 63 6 70 9 73
30 3 17 -4 26 -30 36 -105 44 -479 60 -703 31 -259 -34 -529 -124 -770 -258
-179 -99 -353 -225 -439 -317 -31 -34 -56 -58 -56 -53 0 16 63 162 116 267
263 527 743 881 1304 962 62 9 167 14 255 13 125 -1 151 2 159 14 22 34 -53
78 -202 119 -67 19 -104 22 -282 22 -205 0 -252 -6 -365 -48 -38 -15 49 54
182 143 240 161 490 268 763 326 164 36 471 46 620 21 307 -50 550 -172 819
-411 41 -36 82 -64 90 -63 27 5 24 46 -7 111 -78 166 -289 354 -475 423 -77
29 -55 30 98 4z m2011 -4204 c85 -7 131 -22 145 -47 17 -33 22 -143 10 -215
-43 -248 -288 -457 -578 -492 l-70 -8 20 45 c37 83 33 241 -6 241 -8 0 -36
-27 -62 -61 -26 -33 -71 -79 -99 -101 -47 -38 -162 -98 -186 -98 -6 0 -10 28
-10 68 0 118 -33 236 -105 383 l-42 87 56 -19 c31 -11 90 -22 131 -26 l75 -6
67 52 c105 80 183 128 256 155 93 35 220 55 302 49 14 -1 57 -4 96 -7z m-536
-2833 c63 -64 75 -175 25 -238 -14 -18 -14 -16 0 19 27 70 17 147 -28 194 -21
23 -26 24 -132 17 -60 -3 -130 -8 -155 -10 -60 -6 -607 -23 -963 -31 -158 -4
-286 -8 -284 -10 2 -2 28 -5 58 -5 67 -1 89 -7 89 -24 0 -19 -17 -28 -26 -14
-5 8 -3 9 6 4 8 -5 11 -3 9 4 -3 7 -8 12 -12 12 -4 -1 -14 -1 -23 -1 -9 0 -12
-5 -8 -12 5 -8 2 -9 -11 -4 -15 5 -16 4 -5 -9 10 -12 10 -15 -1 -15 -12 0 -12
-2 0 -9 8 -5 21 -6 30 -3 14 5 14 3 2 -11 -7 -9 -17 -15 -21 -12 -5 3 -12 0
-16 -6 -4 -7 -3 -9 4 -5 5 3 13 0 15 -6 4 -10 8 -9 17 2 10 13 11 12 6 -3 -3
-10 -1 -27 4 -38 8 -13 7 -19 0 -19 -6 0 -13 7 -16 15 -9 23 -24 18 -20 -7 3
-13 5 -27 5 -33 1 -5 6 -3 11 5 7 11 10 11 10 2 0 -7 4 -11 9 -8 5 3 14 -1 21
-9 10 -12 9 -15 -8 -15 -24 0 -53 -29 -31 -31 8 -1 18 -1 22 0 5 1 6 -3 3 -8
-8 -12 14 -61 26 -61 5 0 7 -4 4 -8 -6 -11 30 -52 46 -52 6 0 5 -7 -3 -17 -8
-10 -9 -14 -2 -10 6 4 14 3 18 -3 4 -6 11 -8 16 -5 5 4 6 -2 2 -12 -6 -17 -6
-17 14 0 19 17 22 17 37 2 9 -9 16 -14 16 -11 0 3 16 -2 36 -10 20 -8 33 -10
29 -5 -3 6 -2 11 4 11 5 0 13 -5 16 -10 4 -6 11 -8 16 -4 6 3 18 0 27 -8 13
-11 49 -14 145 -14 70 1 127 -2 127 -5 0 -4 44 -5 98 -2 53 3 134 6 180 6 45
1 82 4 82 7 0 3 48 5 108 5 59 0 122 3 140 6 18 4 32 3 32 -2 0 -6 8 -6 19 0
10 6 34 10 52 10 19 -1 45 3 59 8 l25 10 -23 7 c-38 12 -70 104 -42 121 6 4 8
-5 4 -22 -9 -46 21 -72 113 -99 116 -33 191 -72 245 -125 62 -62 78 -117 78
-266 0 -110 -1 -113 -22 -113 -13 0 -88 -7 -168 -15 -80 -8 -165 -14 -190 -14
-25 1 14 7 85 15 72 7 162 17 200 21 l70 8 -2 99 c-2 140 -3 143 -55 140 -24
-2 -83 -5 -133 -8 -49 -3 -146 -8 -215 -11 -69 -3 -143 -8 -165 -10 -22 -2
-137 -9 -255 -15 -118 -5 -242 -12 -275 -15 -82 -7 -205 -14 -360 -21 -165 -7
-200 -10 -212 -17 -5 -3 -18 -4 -29 -3 -21 4 -44 -10 -44 -26 0 -6 7 -4 17 3
15 13 15 12 2 -8 -7 -12 -16 -19 -19 -15 -10 14 -30 12 -30 -3 0 -8 5 -15 10
-15 21 0 8 -19 -20 -29 -16 -5 -30 -16 -30 -23 0 -9 3 -9 11 2 8 12 9 10 7
-10 -2 -16 2 -24 10 -22 6 1 12 -2 12 -8 0 -5 6 -7 14 -4 8 3 17 0 22 -7 4 -7
2 -15 -4 -17 -24 -8 -11 -22 21 -22 27 -1 29 -2 14 -11 -9 -5 -21 -8 -25 -5
-5 3 -22 1 -38 -4 -33 -10 253 -6 739 12 174 6 320 9 322 6 6 -5 -46 -8 -505
-29 -380 -17 -1524 -23 -1945 -10 -518 16 -944 40 -1315 74 l-125 12 -3 114
c-3 142 13 205 68 265 43 46 131 98 195 114 22 6 71 18 108 28 49 12 73 23 83
40 25 37 10 79 -41 114 -81 56 -124 148 -104 223 15 55 56 114 87 126 17 6
731 10 1946 10 l1918 1 38 -37z m-1446 -949 c3 -8 2 -12 -4 -9 -6 3 -10 10
-10 16 0 14 7 11 14 -7z m1266 -85 c-47 -4 -114 -7 -150 -6 l-65 1 75 6 c41 4
109 7 150 7 l75 0 -85 -8z m-1155 -9 c-3 -5 -16 -10 -28 -9 -20 1 -20 2 3 9
14 4 26 8 28 9 2 1 0 -3 -3 -9z"/>
<path d="M6372 9525 c-70 -20 -98 -35 -153 -84 -56 -49 -101 -117 -131 -197
-18 -50 -22 -81 -22 -199 -1 -173 20 -255 105 -422 49 -96 55 -113 39 -113
-10 0 -69 -20 -132 -45 -634 -254 -1126 -692 -1431 -1275 -121 -230 -194 -443
-249 -720 -19 -98 -23 -146 -22 -330 0 -186 3 -227 22 -307 26 -110 88 -269
107 -277 30 -11 38 22 31 122 -30 434 -11 622 95 936 180 535 516 987 983
1320 43 31 81 55 83 52 2 -2 -12 -25 -31 -51 -119 -155 -246 -441 -310 -700
-87 -350 -72 -750 43 -1105 65 -201 219 -472 376 -659 77 -93 278 -290 362
-354 61 -47 62 -47 77 -26 20 29 12 46 -61 127 -174 194 -289 365 -412 612
-127 256 -194 469 -222 710 -17 147 -6 425 21 555 75 359 278 739 531 996 101
102 194 175 428 334 149 102 176 124 179 148 2 18 -2 29 -13 33 -9 4 -74 -4
-143 -16 -70 -13 -139 -25 -153 -27 -24 -5 -27 -1 -52 84 -53 173 -57 281 -15
418 18 58 31 79 77 125 62 62 106 80 193 80 71 0 105 -12 318 -115 194 -93
404 -177 425 -169 7 3 16 13 20 22 9 22 -40 66 -274 246 -299 230 -386 275
-546 282 -61 3 -107 -1 -143 -11z"/>
<path d="M7959 8430 c-49 -25 -81 -32 -235 -50 -234 -27 -240 -28 -253 -44
-15 -18 -19 -16 277 -192 141 -85 272 -169 290 -186 19 -18 59 -68 89 -111 38
-53 60 -76 70 -73 8 3 17 6 19 6 15 0 -5 75 -70 259 -60 169 -76 225 -81 293
-7 76 -24 129 -43 128 -4 -1 -32 -14 -63 -30z"/>
<path d="M9035 7060 c10 -11 20 -20 23 -20 3 0 -3 9 -13 20 -10 11 -20 20 -23
20 -3 0 3 -9 13 -20z"/>
<path d="M9122 6875 c0 -16 2 -22 5 -12 2 9 2 23 0 30 -3 6 -5 -1 -5 -18z"/>
<path d="M7501 6634 c0 -11 3 -14 6 -6 3 7 2 16 -1 19 -3 4 -6 -2 -5 -13z"/>
<path d="M7521 6504 c0 -11 3 -14 6 -6 3 7 2 16 -1 19 -3 4 -6 -2 -5 -13z"/>
<path d="M7535 6420 c-3 -5 -1 -10 4 -10 6 0 11 5 11 10 0 6 -2 10 -4 10 -3 0
-8 -4 -11 -10z"/>
<path d="M6680 5896 c0 -2 8 -10 18 -17 15 -13 16 -12 3 4 -13 16 -21 21 -21
13z"/>
<path d="M6910 5696 c0 -2 8 -10 18 -17 15 -13 16 -12 3 4 -13 16 -21 21 -21
13z"/>
<path d="M6975 5640 c10 -11 20 -20 23 -20 3 0 -3 9 -13 20 -10 11 -20 20 -23
20 -3 0 3 -9 13 -20z"/>
<path d="M7140 5517 c0 -3 26 -24 58 -48 31 -23 52 -36 45 -28 -14 17 -103 83
-103 76z"/>
<path d="M7334 5368 c163 -137 215 -183 315 -281 64 -62 97 -90 74 -62 -23 28
-60 68 -84 90 -103 95 -219 194 -279 238 -36 27 -47 33 -26 15z"/>
<path d="M5890 5285 c30 -30 57 -55 59 -55 3 0 -19 25 -49 55 -30 30 -57 55
-59 55 -3 0 19 -25 49 -55z"/>
<path d="M6045 5140 c10 -11 20 -20 23 -20 3 0 -3 9 -13 20 -10 11 -20 20 -23
20 -3 0 3 -9 13 -20z"/>
<path d="M6140 5066 c0 -2 8 -10 18 -17 15 -13 16 -12 3 4 -13 16 -21 21 -21
13z"/>
<path d="M6209 5053 c-13 -16 -12 -17 4 -4 9 7 17 15 17 17 0 8 -8 3 -21 -13z"/>
<path d="M7821 4890 c28 -38 53 -70 56 -70 6 0 -6 20 -54 83 -62 81 -63 71 -2
-13z"/>
<path d="M7942 4693 c22 -49 49 -112 59 -141 16 -48 17 -56 4 -69 -18 -18 -19
-25 -3 -41 9 -9 9 -12 -2 -12 -7 0 -10 -3 -7 -6 4 -4 13 -1 21 5 12 11 17 6
27 -31 6 -24 13 -71 15 -106 2 -35 6 -67 9 -72 4 -6 2 -10 -3 -10 -12 0 -23
25 -18 43 1 6 1 9 -1 5 -3 -5 -11 -8 -19 -8 -8 0 -14 -5 -14 -11 0 -5 3 -8 8
-6 4 3 8 -6 8 -19 l2 -25 -19 22 c-10 12 -16 26 -13 30 3 5 1 9 -5 9 -15 0
-25 -21 -14 -29 6 -3 0 -16 -14 -29 -12 -12 -23 -19 -23 -14 0 4 6 14 13 21
10 10 8 11 -8 5 -18 -7 -18 -6 -6 9 8 11 9 17 3 17 -6 0 -9 6 -6 14 3 8 0 17
-6 21 -9 6 -9 10 1 17 9 5 3 6 -16 2 -17 -4 -27 -3 -22 2 5 5 14 9 20 9 7 1
11 6 9 13 -1 9 3 9 20 0 13 -7 26 -17 30 -23 5 -7 8 -6 8 1 0 6 -11 21 -24 33
-15 15 -22 29 -18 40 5 14 4 14 -11 -1 -10 -9 -24 -15 -32 -12 -7 3 -23 0 -35
-6 -15 -8 -20 -8 -16 -1 4 6 2 11 -4 11 -6 0 -8 5 -4 11 5 8 9 8 14 -1 8 -13
30 -6 30 9 0 9 -27 7 -53 -4 -15 -6 -16 -10 -5 -16 10 -7 10 -11 1 -17 -6 -4
-10 -20 -9 -35 4 -29 -3 -34 -22 -15 -10 10 -15 10 -21 -1 -5 -8 -16 -11 -26
-8 -9 4 -14 3 -10 -3 7 -11 -6 -13 -29 -4 -9 3 -13 10 -10 15 3 5 10 6 16 3 6
-4 8 -2 5 3 -4 6 2 13 13 16 11 3 20 1 20 -5 0 -5 5 -6 12 -2 8 5 6 11 -7 20
-14 11 -20 10 -38 -7 -21 -19 -43 -26 -33 -11 3 5 -1 9 -9 9 -8 0 -12 -4 -9
-9 3 -4 -2 -8 -10 -8 -19 0 -21 26 -3 33 8 3 20 1 27 -3 18 -11 40 -1 40 19 0
13 -2 13 -9 2 -5 -8 -11 -9 -15 -3 -3 5 1 15 9 22 12 10 13 16 4 27 -10 11
-14 11 -21 1 -6 -10 -12 -9 -23 6 -8 11 -15 15 -15 9 0 -6 -9 -13 -21 -16 -20
-5 -18 -27 2 -27 6 0 8 4 5 8 -2 4 5 8 17 9 12 0 16 -1 10 -4 -7 -3 -13 -9
-13 -14 0 -6 8 -5 20 1 11 6 20 7 20 2 0 -5 -11 -14 -24 -20 -20 -9 -28 -7
-45 9 -12 11 -19 24 -16 30 4 5 2 9 -4 9 -5 0 -13 -4 -16 -10 -3 -5 -1 -10 4
-10 15 0 14 -17 -2 -23 -8 -3 -13 2 -12 12 2 26 16 43 32 37 9 -4 11 -2 7 6
-5 8 -2 9 9 5 10 -3 17 -2 17 3 0 14 -17 12 -53 -6 -37 -20 -50 -36 -35 -45 5
-4 -2 -6 -17 -6 -15 0 -23 2 -17 6 5 3 8 14 6 24 -1 9 3 17 9 17 5 0 7 3 4 6
-3 4 -1 16 6 28 6 11 12 28 13 37 1 13 -4 13 -32 5 -29 -9 -31 -12 -14 -18 11
-4 20 -13 19 -20 0 -10 -2 -10 -6 0 -10 26 -19 10 -16 -28 3 -39 2 -40 -28
-40 -23 0 -30 -4 -26 -15 4 -8 1 -17 -5 -21 -6 -4 -8 -3 -4 4 3 5 0 12 -6 15
-10 3 -10 7 -1 19 10 12 10 15 -2 15 -8 0 -15 -5 -15 -11 -1 -6 -9 -1 -19 12
-19 22 -38 31 -26 12 3 -5 1 -10 -5 -10 -6 0 -9 -4 -5 -9 3 -6 -5 -19 -17 -30
-12 -12 -24 -17 -27 -12 -3 5 -13 2 -21 -7 -13 -14 -12 -15 3 -9 9 3 17 2 17
-4 0 -6 5 -7 12 -3 7 4 8 3 4 -5 -4 -6 -12 -8 -18 -5 -13 8 -59 -16 -52 -27 3
-5 -1 -6 -9 -3 -8 3 -22 -2 -31 -11 -9 -9 -16 -12 -16 -6 0 6 -7 11 -17 11 -9
0 -13 3 -10 7 4 3 -1 12 -11 20 -9 8 -11 12 -5 8 9 -4 11 -1 7 10 -5 12 -10
13 -20 4 -8 -6 -20 -9 -29 -6 -8 4 -18 -1 -23 -9 -8 -14 -10 -14 -21 0 -11 13
-11 16 -1 16 8 0 10 3 7 6 -4 4 -14 1 -24 -7 -11 -9 -14 -10 -9 -1 4 6 3 12
-2 12 -5 0 -12 -8 -14 -18 -4 -15 -1 -18 18 -14 13 2 24 0 24 -6 0 -6 9 -10
19 -9 10 0 17 7 14 13 -3 8 2 11 16 7 18 -5 19 -8 9 -21 -11 -13 -10 -15 6 -9
16 7 17 5 5 -9 -8 -10 -15 -12 -17 -5 -2 6 -13 11 -25 10 -12 0 -16 -3 -9 -6
10 -4 10 -8 1 -19 -13 -16 -39 -19 -39 -4 0 5 8 6 18 3 16 -6 16 -6 0 10 -18
19 -33 23 -23 7 3 -5 1 -10 -5 -10 -6 0 -9 -4 -5 -9 3 -6 -3 -9 -13 -8 -20 1
-26 27 -6 27 6 0 14 6 17 13 6 16 -25 19 -35 3 -4 -6 -11 -7 -15 -2 -4 5 -2
11 5 13 19 7 14 23 -7 23 -10 0 -24 6 -31 14 -6 8 -19 12 -27 9 -11 -4 -14 -2
-9 5 5 8 2 10 -8 6 -25 -10 -19 -23 9 -19 31 3 41 -10 23 -32 -9 -12 -9 -15 0
-9 20 12 14 -5 -10 -23 -21 -18 -63 -17 -52 0 3 5 -1 9 -8 9 -10 0 -9 3 2 9 8
6 17 8 21 5 4 -2 9 3 13 11 6 17 -9 21 -19 5 -3 -5 -11 -10 -16 -10 -6 0 -7 5
-4 10 3 6 2 10 -3 10 -16 0 -22 -28 -12 -55 10 -27 4 -34 -38 -41 -15 -3 -31
-10 -37 -15 -7 -7 -7 -10 0 -9 21 4 27 0 17 -13 -7 -7 -7 -18 -2 -27 7 -11 11
-12 25 0 12 10 19 10 27 2 7 -7 17 -12 23 -12 5 0 -2 8 -16 18 -14 9 -24 23
-22 30 5 13 24 17 22 5 -3 -21 3 -32 19 -37 9 -3 23 -15 30 -26 10 -17 10 -20
-4 -20 -8 0 -13 4 -9 9 8 14 -9 21 -25 11 -8 -5 -19 -5 -26 1 -7 6 -17 2 -28
-10 -10 -11 -24 -17 -32 -14 -16 6 -19 33 -4 33 6 0 5 6 -2 14 -9 10 -18 11
-32 4 -13 -7 -16 -7 -12 1 4 6 3 11 -3 11 -6 0 -8 7 -5 15 7 17 25 21 21 4 -1
-6 6 -13 16 -14 21 -4 22 8 2 28 -8 8 -11 17 -8 21 4 3 1 6 -5 6 -7 0 -12 -6
-12 -12 0 -8 -3 -9 -8 -3 -20 28 -41 36 -62 25 -28 -15 -36 -7 -14 14 9 9 14
19 11 22 -3 3 -11 -1 -18 -9 -10 -10 -16 -11 -25 -3 -9 8 -8 16 4 31 9 11 13
17 8 12 -5 -4 -18 1 -28 10 -18 16 -18 16 -12 0 3 -9 11 -17 16 -17 6 0 -4
-13 -21 -29 -18 -17 -27 -32 -21 -36 5 -3 10 -15 10 -26 0 -17 -11 -24 -34
-20 -5 1 -4 -4 2 -12 7 -8 9 -17 5 -20 -3 -4 1 -7 10 -7 10 0 17 -4 17 -10 0
-5 -6 -10 -12 -10 -9 0 -9 -3 1 -9 12 -8 13 -14 3 -35 -6 -14 -16 -26 -21 -26
-14 0 -32 36 -23 46 4 5 -1 2 -10 -5 -18 -13 -25 -27 -10 -17 4 2 13 -4 20
-14 10 -17 8 -18 -16 -15 -20 2 -26 7 -24 21 2 14 0 15 -6 6 -5 -7 -7 -24 -4
-37 4 -22 6 -23 20 -8 11 10 17 12 20 4 2 -7 9 -8 22 -1 13 7 20 6 22 -1 3 -8
10 -6 20 5 9 9 22 16 28 16 6 0 8 5 5 10 -3 6 2 10 12 10 15 0 14 -4 -8 -24
-38 -35 -66 -48 -72 -33 -3 7 -6 5 -6 -5 -1 -10 -7 -18 -13 -18 -9 0 -8 -3 2
-9 8 -6 17 -8 21 -5 10 6 32 -24 25 -35 -4 -6 5 -4 20 4 15 7 33 11 42 8 10
-4 13 -2 8 5 -10 16 9 15 22 0 7 -9 6 -17 -4 -26 -8 -7 -14 -8 -14 -2 0 5 -7
10 -15 10 -8 0 -15 -4 -15 -9 0 -11 -40 -9 -59 3 -16 10 -18 7 -23 -24 -2 -16
1 -24 10 -23 6 2 12 -2 12 -8 0 -5 3 -8 8 -6 4 3 13 -2 21 -10 12 -13 11 -14
-10 -9 l-24 6 23 -11 c12 -7 22 -16 22 -20 0 -5 -190 -10 -422 -12 -233 -1 92
-3 722 -3 630 0 1129 1 1110 4 -33 5 -34 5 -10 12 l25 8 -27 1 c-16 1 -28 -3
-28 -9 0 -7 -183 -9 -532 -8 -293 1 -480 4 -415 5 73 2 115 7 112 13 -9 14 9
12 23 -2 8 -8 15 -8 28 3 10 8 15 9 11 3 -4 -7 5 -11 24 -12 16 0 27 4 24 9
-4 5 -2 9 4 9 5 0 11 -6 14 -12 3 -10 7 -10 20 1 13 11 20 11 32 1 11 -9 19
-8 37 4 13 9 17 16 9 16 -8 0 -11 3 -8 7 4 3 18 -4 32 -17 14 -13 25 -19 25
-13 0 6 7 14 16 17 14 5 15 4 4 -9 -10 -12 -10 -15 4 -15 9 0 16 6 16 13 0 9
2 9 9 -1 6 -10 10 -10 21 3 12 14 15 14 31 -1 16 -15 17 -14 12 5 -3 13 -1 21
6 21 7 0 9 6 6 13 -4 6 0 4 8 -5 13 -17 15 -17 31 0 9 10 13 22 9 27 -5 4 -3
5 4 1 7 -4 10 -13 6 -21 -3 -10 1 -15 12 -15 9 0 13 5 10 10 -3 6 -1 10 4 10
6 0 11 -4 11 -10 0 -5 5 -10 11 -10 5 0 7 5 4 10 -3 6 -2 10 4 10 5 0 13 -5
16 -10 4 -6 11 -8 16 -4 5 3 7 9 4 13 -2 5 5 17 17 27 21 19 21 19 9 -3 -10
-19 -8 -24 9 -33 11 -6 25 -8 30 -5 6 4 13 -1 16 -9 3 -9 10 -13 15 -10 5 3 6
10 3 16 -9 13 39 -12 48 -26 10 -15 61 -18 70 -3 6 9 8 9 8 -1 0 -7 5 -10 10
-7 6 4 8 11 5 16 -3 5 1 6 10 2 14 -5 14 -8 3 -15 -9 -7 -8 -8 7 -6 11 2 20
11 19 19 -1 8 7 16 18 16 10 1 16 -2 14 -6 -3 -4 1 -8 9 -8 8 0 13 3 10 5 -3
3 2 13 11 23 9 10 17 29 18 43 0 14 3 26 6 26 3 0 6 12 6 28 1 15 -1 21 -3 15
-3 -7 -9 -13 -14 -13 -6 0 -7 5 -4 10 3 6 -4 10 -17 10 -18 0 -20 2 -8 10 13
8 12 10 -5 11 -11 1 -26 2 -32 2 -7 -1 -10 4 -6 10 4 7 0 8 -13 3 -16 -6 -15
-3 5 18 23 24 23 25 2 19 -13 -3 -21 -1 -21 6 0 7 5 9 10 6 6 -3 10 1 10 10 0
10 -5 13 -12 9 -7 -4 -5 2 5 13 9 11 14 23 10 28 -5 4 -2 4 6 0 11 -6 13 -4 8
8 -9 24 1 21 23 -5 l19 -23 -4 23 c-2 14 1 22 11 22 8 0 14 5 14 10 0 6 6 10
14 10 11 0 14 -25 15 -122 1 -68 -2 -128 -7 -135 -10 -15 -3 -103 9 -103 5 0
9 85 9 193 0 249 -20 388 -81 554 -20 56 -86 193 -93 193 -3 0 14 -39 36 -87z
m-392 -233 c0 -5 -4 -10 -10 -10 -5 0 -10 5 -10 10 0 6 5 10 10 10 6 0 10 -4
10 -10z m-144 -117 c2 -10 -3 -10 -19 -1 -13 7 -17 13 -10 15 7 3 10 12 7 21
-4 12 -2 11 7 -3 7 -11 14 -26 15 -32z m98 2 c3 -8 1 -15 -3 -15 -5 0 -11 7
-15 15 -3 8 -1 15 3 15 5 0 11 -7 15 -15z m119 -12 c-20 -7 7 -53 30 -53 16 0
17 -3 7 -15 -11 -14 -14 -13 -25 1 -6 10 -17 14 -23 10 -6 -3 -9 1 -7 11 1 10
-1 25 -6 34 -10 20 -2 30 19 21 10 -3 11 -7 5 -9z m-240 -7 c14 -11 15 -15 4
-19 -8 -3 -20 -1 -28 4 -8 5 -9 9 -4 9 6 0 3 5 -5 10 -13 9 -13 10 0 10 8 -1
23 -7 33 -14z m107 -10 c0 -11 -19 -15 -25 -6 -3 5 1 10 9 10 9 0 16 -2 16 -4z
m65 -24 c-3 -3 -11 0 -18 7 -9 10 -8 11 6 5 10 -3 15 -9 12 -12z m-252 -22
c-3 -11 -9 -20 -14 -20 -10 0 -11 12 -3 34 9 22 23 10 17 -14z m550 13 c-4
-11 -3 -14 5 -9 7 4 18 4 25 -1 12 -8 17 -9 37 -12 7 -1 7 -8 -1 -22 -8 -16
-8 -20 1 -14 7 4 10 1 8 -11 -2 -11 -12 -24 -23 -30 -11 -5 -19 -19 -18 -30 1
-10 0 -13 -3 -7 -4 10 -11 10 -27 1 -20 -10 -21 -10 -8 5 15 19 2 24 -16 6 -7
-7 -12 -6 -16 5 -4 9 1 21 11 28 12 9 17 25 16 53 -2 38 2 55 11 55 3 0 1 -7
-2 -17z m-443 -7 c0 -11 -19 -15 -25 -6 -3 5 1 10 9 10 9 0 16 -2 16 -4z
m-421 -40 c-6 -6 -13 -6 -21 2 -7 7 -17 12 -22 12 -6 0 -4 -4 4 -10 8 -5 11
-12 7 -16 -11 -11 -31 12 -22 26 4 6 13 9 21 6 8 -3 14 -1 14 5 0 5 6 4 14 -3
9 -8 11 -17 5 -22z m-353 -2 c19 -20 28 -24 34 -14 5 8 9 9 14 1 4 -6 2 -11
-4 -11 -6 0 -8 -5 -4 -11 5 -8 10 -6 16 5 5 9 6 22 2 29 -5 7 -1 7 10 -2 13
-11 14 -16 4 -22 -10 -7 -10 -9 1 -9 11 0 11 -3 0 -16 -10 -13 -10 -17 1 -24
11 -7 11 -11 1 -24 -17 -21 -7 -20 24 0 14 9 25 12 25 6 0 -12 -19 -27 -35
-27 -5 0 -10 -4 -10 -10 0 -19 -16 -35 -28 -28 -8 4 -7 1 1 -9 7 -9 22 -15 32
-13 14 3 17 -1 13 -12 -4 -11 -2 -14 5 -9 15 9 16 36 2 36 -14 0 -12 19 4 35
27 27 50 -26 24 -54 -9 -9 -3 -8 18 2 28 14 31 14 42 -4 10 -16 9 -19 -3 -19
-8 0 -15 5 -15 10 0 6 -5 10 -11 10 -5 0 -7 -5 -3 -12 5 -7 3 -8 -6 -3 -10 6
-12 4 -7 -8 3 -10 2 -17 -3 -17 -6 0 -10 4 -10 10 0 5 -10 9 -22 8 -13 0 -27
0 -33 2 -20 5 -36 0 -30 -9 3 -6 -3 -9 -14 -8 -16 1 -18 5 -10 19 6 10 15 16
22 12 7 -4 6 -1 -2 7 -10 11 -15 11 -18 1 -3 -6 -9 -10 -14 -6 -5 3 -9 0 -9
-7 0 -7 -3 -10 -6 -7 -3 3 1 16 8 27 10 17 10 23 1 29 -9 6 -7 11 7 20 14 8
21 9 26 0 4 -7 3 -8 -4 -4 -7 4 -12 1 -12 -9 0 -12 4 -14 19 -5 11 5 19 19 18
30 -1 21 -29 38 -35 21 -2 -6 -9 -8 -14 -5 -6 4 -17 -1 -25 -11 -9 -14 -13
-15 -13 -4 0 11 -2 12 -9 0 -6 -9 -11 -10 -15 -2 -4 6 0 14 8 17 9 3 16 16 17
28 1 19 2 19 9 -4 7 -22 15 -11 11 14 -1 4 3 14 9 21 13 15 4 22 -26 20 -11
-1 -21 4 -21 11 0 7 5 10 10 7 6 -4 8 0 4 10 -9 24 -2 21 29 -9z m624 16 c0
-5 -4 -10 -10 -10 -5 0 -10 5 -10 10 0 6 5 10 10 10 6 0 10 -4 10 -10z m460
-12 c0 -5 -7 -8 -15 -4 -8 3 -15 1 -15 -3 0 -5 -6 -11 -13 -14 -8 -3 -14 1
-14 9 0 7 4 11 8 9 3 -3 12 2 19 10 13 15 30 12 30 -7z m90 2 c0 -5 -5 -10
-11 -10 -5 0 -7 5 -4 10 3 6 8 10 11 10 2 0 4 -4 4 -10z m-510 -21 c0 -14 -17
-10 -23 5 -4 10 -1 13 9 9 7 -3 14 -9 14 -14z m161 4 c13 -17 13 -17 -6 -3
-11 8 -22 16 -24 17 -2 2 0 3 6 3 6 0 17 -8 24 -17z m-556 -3 c3 -5 2 -10 -4
-10 -5 0 -13 5 -16 10 -3 6 -2 10 4 10 5 0 13 -4 16 -10z m89 -19 c16 -18 15
-20 -21 -49 -34 -27 -39 -28 -39 -11 0 10 4 19 9 19 4 0 5 5 2 10 -3 6 -1 10
4 10 6 0 11 -4 11 -10 0 -5 4 -10 8 -10 5 0 8 14 7 30 -2 35 -3 35 19 11z
m163 4 c0 -8 -4 -12 -9 -9 -5 3 -6 10 -3 15 9 13 12 11 12 -6z m-117 -5 c0 -5
-5 -10 -11 -10 -5 0 -7 5 -4 10 3 6 8 10 11 10 2 0 4 -4 4 -10z m-451 -30
c-21 -14 -32 1 -12 15 12 9 19 10 22 3 2 -6 -3 -14 -10 -18z m715 5 c-15 -13
-31 -21 -34 -17 -3 4 -9 10 -15 15 -6 5 -1 6 11 2 13 -3 26 1 34 10 7 8 17 15
23 15 5 0 -3 -11 -19 -25z m-388 -12 c-7 -7 -26 7 -26 19 0 6 6 6 15 -2 9 -7
13 -15 11 -17z m164 0 c0 -12 -2 -12 -15 1 -8 8 -15 17 -15 20 0 3 7 3 15 0 8
-4 15 -13 15 -21z m50 -5 c9 -3 10 -7 3 -11 -6 -4 -19 3 -29 16 -11 12 -12 17
-4 11 8 -6 22 -13 30 -16z m783 5 c-4 -10 -2 -14 5 -9 6 3 13 2 16 -3 4 -5 -1
-8 -9 -7 -20 3 -28 13 -20 25 10 17 15 13 8 -6z m-683 -33 c0 -5 -2 -10 -4
-10 -3 0 -8 5 -11 10 -3 6 -1 10 4 10 6 0 11 -4 11 -10z m-363 -13 c13 5 13 2
4 -16 -7 -12 -16 -19 -22 -16 -5 4 -9 2 -9 -3 0 -5 -11 -9 -25 -9 -14 0 -25 4
-25 9 0 5 5 6 10 3 6 -3 10 1 10 10 0 9 5 13 10 10 6 -3 10 2 10 11 0 13 3 15
11 7 6 -6 18 -9 26 -6z m90 -16 c1 -11 -5 -22 -13 -25 -9 -3 -12 -1 -9 4 3 6
0 10 -7 10 -8 1 -6 6 6 15 11 8 20 15 21 15 0 0 1 -9 2 -19z m-37 -30 c0 -5 9
-11 20 -14 20 -5 28 -27 10 -27 -5 0 -10 5 -10 11 0 8 -5 7 -16 -1 -8 -8 -14
-9 -13 -4 4 22 -3 31 -23 29 -13 -2 -22 -8 -20 -14 1 -7 -2 -10 -8 -6 -17 10
5 30 34 33 14 1 26 -2 26 -7z m225 -1 c-3 -5 -12 -10 -18 -10 -7 0 -6 4 3 10
19 12 23 12 15 0z m785 4 c0 -8 -19 -13 -24 -6 -3 5 1 9 9 9 8 0 15 -2 15 -3z
m-25 -52 c-3 -3 -11 0 -18 7 -9 10 -8 11 6 5 10 -3 15 -9 12 -12z m-1278 -29
l-11 -25 -18 22 c-10 12 -18 18 -18 13 0 -5 5 -14 12 -21 7 -7 9 -12 4 -12 -4
0 -14 6 -21 14 -12 11 -12 16 -1 25 9 8 16 7 25 -2 7 -6 12 -7 11 -2 -4 19 0
24 14 19 12 -5 13 -11 3 -31z m157 2 c3 3 2 0 -2 -5 -11 -13 -44 -2 -36 12 4
5 11 5 18 -1 7 -6 16 -9 20 -6z m-67 -1 c-3 -3 -12 -4 -19 -1 -8 3 -5 6 6 6
11 1 17 -2 13 -5z m1178 -24 c3 -6 -1 -7 -9 -4 -18 7 -21 14 -7 14 6 0 13 -4
16 -10z m-119 -22 c4 -7 4 -10 -1 -6 -4 4 -14 3 -22 -4 -11 -8 -12 -7 -7 6 7
19 20 21 30 4z m-1207 -30 c11 -15 10 -17 -7 -15 -13 1 -18 7 -14 19 2 11 5
17 6 16 1 -2 7 -11 15 -20z m70 -14 c3 -4 -1 -5 -10 -1 -9 3 -21 1 -26 -4 -6
-6 -10 -4 -10 5 0 14 33 14 46 0z m54 -17 c-3 -4 -6 -7 -7 -5 -1 2 -8 12 -16
22 -14 18 -14 18 7 6 12 -8 19 -18 16 -23z m1075 12 c3 -11 2 -11 -7 1 -7 10
-11 11 -11 3 0 -7 -4 -13 -10 -13 -5 0 -7 7 -3 15 7 19 25 15 31 -6z m257 1
c-2 -4 -16 -7 -30 -7 -23 0 -24 1 -8 12 17 13 47 9 38 -5z m-1370 -31 c11 -17
2 -18 -19 -3 -17 12 -17 14 -4 14 9 0 20 -5 23 -11z m683 -8 c3 -8 -1 -12 -9
-9 -7 2 -15 10 -17 17 -3 8 1 12 9 9 7 -2 15 -10 17 -17z m-581 -14 c0 -8 -6
-14 -14 -14 -9 0 -10 4 -2 14 6 7 12 13 14 13 1 0 2 -6 2 -13z"/>
<path d="M7867 4253 c4 -11 3 -14 -5 -9 -7 4 -12 2 -12 -3 0 -6 5 -11 11 -11
5 0 8 -4 4 -9 -3 -6 3 -14 12 -20 10 -6 12 -11 6 -11 -7 0 -13 -5 -13 -11 0
-8 4 -8 14 0 8 7 14 27 14 44 -1 18 -3 26 -5 20 -7 -21 -22 -14 -16 7 3 11 0
20 -6 20 -6 0 -8 -7 -4 -17z"/>
<path d="M7840 4190 c-13 -8 -12 -10 3 -10 9 0 17 5 17 10 0 12 -1 12 -20 0z"/>
<path d="M6644 4189 c-5 -8 -3 -9 6 -4 10 6 12 3 8 -13 -4 -15 -2 -19 8 -15 8
3 22 -1 32 -8 15 -13 16 -12 4 3 -8 10 -10 23 -6 30 6 9 3 9 -10 -1 -13 -11
-16 -11 -14 -1 4 17 -18 24 -28 9z"/>
<path d="M6740 4086 c0 -2 7 -6 15 -10 8 -3 15 -1 15 4 0 6 -7 10 -15 10 -8 0
-15 -2 -15 -4z"/>
<path d="M7556 4621 c-3 -5 0 -11 7 -14 8 -3 14 1 14 9 0 16 -13 19 -21 5z"/>
<path d="M7590 4573 c8 -17 8 -23 -1 -23 -7 0 -10 -2 -7 -5 8 -8 38 6 38 18 0
6 -3 7 -7 4 -3 -4 -12 1 -20 11 -13 15 -13 15 -3 -5z"/>
<path d="M7411 4571 l-24 -6 24 -12 c21 -9 25 -8 25 8 0 11 0 19 -1 18 0 -1
-11 -4 -24 -8z"/>
<path d="M7525 4561 c-3 -5 -2 -12 3 -15 5 -3 9 1 9 9 0 17 -3 19 -12 6z"/>
<path d="M7360 4549 c0 -5 5 -7 10 -4 6 3 10 8 10 11 0 2 -4 4 -10 4 -5 0 -10
-5 -10 -11z"/>
<path d="M7490 4546 c0 -2 7 -7 16 -10 8 -3 12 -2 9 4 -6 10 -25 14 -25 6z"/>
<path d="M7546 4533 c-6 -14 -5 -15 5 -6 7 7 10 15 7 18 -3 3 -9 -2 -12 -12z"/>
<path d="M7764 4539 c-3 -6 -12 -8 -20 -5 -8 3 -14 1 -14 -4 0 -6 5 -10 11
-10 8 0 7 -5 -1 -15 -12 -14 -15 -13 -35 5 l-23 21 -21 -27 -21 -26 22 -24
c16 -16 25 -19 30 -11 4 7 -2 19 -14 28 -19 15 -20 19 -7 31 12 12 17 13 26 2
10 -10 10 -14 0 -17 -7 -3 8 -5 33 -4 24 0 39 2 33 4 -17 6 -4 33 20 42 17 7
18 9 4 14 -9 3 -19 2 -23 -4z"/>
<path d="M7440 4513 c0 -8 -7 -10 -17 -6 -23 8 -14 -1 16 -17 15 -8 21 -8 17
-1 -5 7 11 11 51 12 46 0 53 2 35 10 -13 5 -28 7 -32 4 -5 -3 -11 1 -13 7 -4
10 -6 10 -6 1 -1 -7 -6 -13 -12 -13 -5 0 -8 4 -5 8 2 4 -4 8 -15 8 -10 0 -19
-6 -19 -13z"/>
<path d="M7280 4510 c-9 -6 -10 -10 -3 -10 6 0 15 5 18 10 8 12 4 12 -15 0z"/>
<path d="M7770 4511 c0 -5 7 -11 15 -15 8 -3 15 -1 15 3 0 5 -7 11 -15 15 -8
3 -15 1 -15 -3z"/>
<path d="M7434 4438 c0 -23 6 -38 14 -38 6 0 12 -4 12 -10 0 -5 10 -10 23 -10
21 1 21 1 4 14 -16 12 -16 15 -3 23 10 6 12 13 6 23 -7 11 -10 11 -10 2 0 -7
-4 -11 -10 -7 -5 3 -6 13 -3 23 6 14 4 15 -9 4 -13 -10 -17 -10 -21 0 -3 7 -4
-4 -3 -24z"/>
<path d="M7734 4445 c-1 -13 4 -26 12 -29 8 -3 14 -1 14 5 0 6 5 7 12 3 7 -4
8 -3 4 5 -4 6 -12 9 -17 6 -5 -4 -9 -1 -9 4 0 6 5 11 10 11 18 0 11 16 -7 17
-12 1 -18 -6 -19 -22z"/>
<path d="M7618 4443 c7 -3 16 -2 19 1 4 3 -2 6 -13 5 -11 0 -14 -3 -6 -6z"/>
<path d="M7816 4422 c-3 -6 1 -13 10 -16 23 -9 28 -2 10 13 -8 7 -17 8 -20 3z"/>
<path d="M7964 4422 c-9 -5 -8 -10 1 -19 11 -10 13 -9 12 7 -1 11 -1 20 -2 20
0 0 -5 -4 -11 -8z"/>
<path d="M7781 4411 c-7 -5 -10 -14 -7 -20 11 -17 22 -13 23 9 2 23 2 23 -16
11z"/>
<path d="M7730 4403 c0 -5 11 -20 24 -32 13 -12 26 -36 30 -52 4 -20 10 -28
18 -23 9 6 9 9 0 12 -7 2 -12 11 -12 20 0 10 -14 32 -30 51 -17 18 -30 29 -30
24z"/>
<path d="M6960 4380 c-12 -8 -12 -10 4 -16 11 -4 23 -1 32 10 8 9 9 11 2 6
-16 -13 -31 -13 -23 0 8 12 4 12 -15 0z"/>
<path d="M7025 4380 c3 -5 8 -10 11 -10 2 0 4 5 4 10 0 6 -5 10 -11 10 -5 0
-7 -4 -4 -10z"/>
<path d="M7071 4377 c-8 -10 -7 -14 2 -14 8 0 14 6 14 14 0 7 -1 13 -2 13 -2
0 -8 -6 -14 -13z"/>
<path d="M6523 4357 c0 -8 6 -14 14 -14 9 0 10 4 2 14 -6 7 -12 13 -14 13 -1
0 -2 -6 -2 -13z"/>
<path d="M6690 4366 c0 -2 8 -10 18 -17 15 -13 16 -12 3 4 -13 16 -21 21 -21
13z"/>
<path d="M7237 4357 c-3 -8 3 -14 16 -15 12 0 17 2 12 6 -6 4 -13 11 -16 15
-4 4 -9 2 -12 -6z"/>
<path d="M6772 4337 c-8 -10 -6 -13 11 -14 12 0 16 1 9 4 -6 3 -10 9 -6 14 8
14 -2 11 -14 -4z"/>
<path d="M7013 4335 c-10 -10 -9 -16 5 -26 9 -7 14 -10 10 -5 -4 5 -3 17 3 27
11 22 0 25 -18 4z"/>
<path d="M7192 4334 c-7 -8 -8 -14 -3 -14 10 0 25 19 20 25 -2 1 -10 -3 -17
-11z"/>
<path d="M6706 4315 c-11 -8 -16 -15 -10 -15 5 0 2 -5 -6 -11 -13 -9 -12 -10
2 -5 10 3 20 1 23 -4 3 -5 -3 -11 -12 -14 -12 -3 -10 -5 7 -4 41 1 51 -2 46
-10 -2 -4 2 -15 9 -25 7 -10 16 -14 19 -9 3 5 17 8 31 7 14 -2 22 1 19 6 -3 6
0 18 8 27 12 15 11 16 -4 3 -14 -10 -21 -11 -32 -2 -8 7 -20 11 -28 10 -19 -3
-68 19 -68 31 0 7 6 8 19 0 14 -7 22 -7 26 0 4 6 3 10 -2 9 -4 -1 -15 -1 -23
0 -13 1 -13 2 0 11 8 5 11 10 5 10 -5 -1 -19 -7 -29 -15z m86 -70 c0 -5 -5
-11 -10 -13 -5 -1 -9 4 -9 13 0 9 4 14 9 13 5 -2 10 -8 10 -13z"/>
<path d="M7217 4313 c-22 -11 -26 -18 -17 -28 12 -14 44 -9 35 5 -6 10 23 35
32 26 3 -3 1 -6 -5 -6 -7 0 -12 -5 -12 -11 0 -8 5 -8 15 1 16 13 11 31 -8 29
-7 -1 -25 -8 -40 -16z"/>
<path d="M6515 4310 c-2 -3 0 -12 5 -20 13 -21 1 -42 -15 -27 -7 7 -10 16 -7
21 3 5 0 6 -7 2 -12 -8 -6 -20 28 -56 13 -13 14 -13 8 3 -5 12 -3 16 5 11 6
-4 8 -3 5 3 -8 13 17 65 26 58 4 -3 5 -2 2 2 -7 9 -45 12 -50 3z m23 -25 c-3
-3 -9 2 -12 12 -6 14 -5 15 5 6 7 -7 10 -15 7 -18z"/>
<path d="M6580 4294 c0 -10 -3 -15 -6 -11 -4 3 -13 -1 -21 -9 -9 -8 -12 -18
-9 -21 4 -4 18 5 32 19 17 16 22 28 15 32 -6 4 -11 0 -11 -10z"/>
<path d="M6840 4301 c0 -7 -9 -9 -24 -5 -15 3 -27 1 -32 -8 -4 -7 -4 -10 1 -6
4 4 14 0 22 -10 8 -9 12 -11 8 -4 -4 7 0 12 9 12 17 0 31 18 22 27 -3 4 -6 1
-6 -6z"/>
<path d="M6460 4256 c0 -8 -6 -17 -12 -19 -9 -4 -9 -6 1 -6 11 -1 9 -7 -7 -24
l-21 -23 24 -2 c14 -1 25 3 25 10 0 7 7 5 18 -4 21 -19 48 -13 29 7 -9 9 -14
10 -19 1 -6 -8 -8 -8 -8 2 0 6 -6 12 -14 12 -10 0 -13 9 -10 30 3 17 3 30 0
30 -3 0 -6 -6 -6 -14z"/>
<path d="M6905 4260 c3 -5 8 -10 11 -10 2 0 4 5 4 10 0 6 -5 10 -11 10 -5 0
-7 -4 -4 -10z"/>
<path d="M6403 4233 c0 -9 4 -10 14 -2 7 6 13 12 13 14 0 1 -6 2 -13 2 -8 0
-14 -6 -14 -14z"/>
<path d="M6540 4227 c0 -8 6 -17 14 -20 9 -4 13 0 12 11 -3 20 -26 29 -26 9z"/>
<path d="M6527 4163 c-10 -9 -9 -23 1 -23 5 0 9 7 9 15 0 17 -1 18 -10 8z"/>
<path d="M7970 4135 c-9 -11 -9 -15 -1 -15 7 0 10 -4 7 -8 -2 -4 4 -8 14 -9
19 -2 21 20 3 38 -7 7 -14 5 -23 -6z"/>
<path d="M6086 4112 c-2 -4 4 -8 14 -8 10 0 16 4 14 8 -3 4 -9 8 -14 8 -5 0
-11 -4 -14 -8z"/>
<path d="M6293 4083 c-7 -2 -13 -10 -13 -15 0 -6 3 -8 6 -5 4 3 14 2 24 -3 12
-6 17 -5 17 5 0 7 -7 11 -15 7 -10 -3 -13 -1 -8 6 8 13 7 13 -11 5z"/>
<path d="M6010 4066 c0 -2 7 -9 15 -16 13 -11 14 -10 9 4 -5 14 -24 23 -24 12z"/>
<path d="M6067 4052 c-10 -11 -13 -23 -8 -31 6 -9 11 -10 15 -2 4 6 2 11 -4
11 -6 0 -8 5 -5 10 4 6 10 8 14 6 4 -3 8 1 8 9 0 19 -1 19 -20 -3z"/>
<path d="M6181 4056 c-1 -15 5 -17 29 -14 17 3 30 1 30 -4 0 -4 -4 -8 -10 -8
-5 0 -10 -8 -10 -17 0 -14 3 -13 16 6 11 15 23 21 35 18 11 -3 19 -1 19 4 0 8
-15 13 -32 10 -5 0 -8 4 -8 11 0 9 -3 9 -12 0 -16 -16 -45 -15 -51 1 -3 7 -6
4 -6 -7z"/>
<path d="M5974 4035 c5 -11 8 -31 7 -45 -1 -21 4 -26 25 -28 37 -3 54 -20 54
-53 0 -16 5 -29 12 -29 6 0 8 3 5 7 -12 11 14 33 39 33 25 0 40 -15 25 -24 -5
-4 -12 0 -14 6 -3 8 -6 5 -6 -6 -1 -12 4 -16 14 -13 8 4 17 2 20 -3 4 -6 1
-10 -4 -10 -6 0 -11 -8 -11 -17 0 -15 2 -14 14 3 14 18 15 18 21 2 4 -10 15
-18 24 -17 12 0 11 3 -6 16 -26 17 -31 35 -8 27 11 -5 13 -2 9 10 -4 10 -12
15 -20 12 -7 -3 -18 2 -24 10 -7 8 -17 14 -22 14 -5 0 -19 10 -30 23 -11 12
-17 17 -14 11 9 -18 -22 -25 -32 -8 -7 13 -24 20 -54 23 -5 1 -8 6 -8 12 0 5
5 7 10 4 6 -3 10 -1 10 4 0 6 -5 11 -11 11 -5 0 -8 4 -5 9 3 5 -2 15 -11 22
-15 12 -16 12 -9 -6z m112 -110 c-9 -9 -16 -13 -16 -8 0 12 22 34 28 28 2 -2
-3 -11 -12 -20z"/>
<path d="M6309 4023 c-13 -15 -12 -15 9 -4 23 12 28 21 13 21 -5 0 -15 -7 -22
-17z"/>
<path d="M5686 4023 c5 -5 12 -12 16 -18 4 -6 8 -2 8 8 0 9 -7 17 -17 17 -9 0
-12 -3 -7 -7z"/>
<path d="M6145 4010 c-6 -18 -9 -19 -23 -8 -16 12 -16 11 -2 -6 14 -18 13 -19
-2 -13 -10 3 -18 2 -18 -3 0 -5 9 -12 20 -15 11 -3 20 -10 20 -14 0 -5 12 -8
28 -7 19 1 26 -4 24 -15 -1 -9 8 -24 19 -35 22 -19 22 -19 10 3 -15 29 -14 31
6 29 11 0 19 7 21 21 2 12 9 21 15 19 7 -1 9 -1 4 1 -4 3 -5 8 -2 13 3 4 -2
10 -10 13 -9 4 -12 1 -8 -9 3 -7 0 -14 -6 -14 -6 0 -11 6 -11 13 0 8 -4 7 -10
-3 -8 -13 -10 -13 -10 2 0 9 -5 20 -12 24 -7 4 -8 3 -4 -4 4 -7 1 -12 -6 -12
-9 0 -9 -3 -2 -8 6 -4 14 -16 17 -27 7 -19 6 -19 -7 -2 -8 10 -16 14 -18 10
-3 -4 -3 -2 -2 5 4 14 -12 16 -21 2 -4 -6 -11 -8 -16 -4 -5 3 -7 10 -3 15 3 5
10 7 15 4 5 -3 6 2 3 12 -5 15 -4 15 5 3 5 -8 13 -11 17 -8 3 4 -1 14 -9 23
-14 14 -16 13 -22 -5z m95 -66 c0 -8 -4 -14 -9 -14 -11 0 -22 26 -14 34 9 9
23 -3 23 -20z"/>
<path d="M6500 4020 c0 -5 5 -10 11 -10 5 0 7 5 4 10 -3 6 -8 10 -11 10 -2 0
-4 -4 -4 -10z"/>
<path d="M5726 4012 c-3 -5 1 -9 9 -9 8 0 12 4 9 9 -3 4 -7 8 -9 8 -2 0 -6 -4
-9 -8z"/>
<path d="M6071 3997 c-8 -10 -7 -14 4 -14 8 0 15 6 15 14 0 7 -2 13 -4 13 -2
0 -9 -6 -15 -13z"/>
<path d="M6350 3990 c-9 -6 -10 -10 -3 -10 6 0 15 5 18 10 8 12 4 12 -15 0z"/>
<path d="M6483 3963 c1 -17 4 -19 14 -11 15 12 18 22 4 14 -5 -4 -11 0 -14 6
-3 7 -4 3 -4 -9z"/>
<path d="M6520 3959 c0 -5 5 -7 10 -4 6 3 10 8 10 11 0 2 -4 4 -10 4 -5 0 -10
-5 -10 -11z"/>
<path d="M6440 3956 c0 -2 8 -10 18 -17 15 -13 16 -12 3 4 -13 16 -21 21 -21
13z"/>
<path d="M4532 3930 c0 -14 2 -19 5 -12 2 6 2 18 0 25 -3 6 -5 1 -5 -13z"/>
<path d="M6295 3939 c-4 -6 -14 -8 -23 -4 -13 5 -12 2 3 -15 19 -21 30 -27 20
-10 -4 6 -1 17 5 25 7 8 10 15 7 15 -3 0 -9 -5 -12 -11z"/>
<path d="M6370 3940 c-8 -5 -12 -12 -9 -15 4 -3 12 1 19 10 14 17 11 19 -10 5z"/>
<path d="M6235 3889 c6 -18 4 -20 -14 -14 -12 3 -21 2 -21 -3 0 -14 28 -23 35
-11 4 5 11 6 17 3 6 -4 6 0 -1 13 -6 11 -7 23 -4 27 3 3 1 6 -6 6 -8 0 -10 -7
-6 -21z"/>
<path d="M6006 3871 c-12 -13 -14 -21 -6 -26 6 -4 9 -1 8 7 -2 7 2 12 8 11 6
-1 11 5 11 13 0 18 0 18 -21 -5z"/>
<path d="M4530 3850 c0 -16 4 -30 8 -30 5 0 7 14 4 30 -2 17 -6 30 -8 30 -2 0
-4 -13 -4 -30z"/>
<path d="M7613 3855 c0 -11 4 -12 14 -4 7 6 13 13 13 15 0 2 -6 4 -13 4 -8 0
-14 -7 -14 -15z"/>
<path d="M7792 3859 c2 -7 10 -15 17 -17 8 -3 12 1 9 9 -2 7 -10 15 -17 17 -8
3 -12 -1 -9 -9z"/>
<path d="M6548 3843 c7 -3 16 -2 19 1 4 3 -2 6 -13 5 -11 0 -14 -3 -6 -6z"/>
<path d="M5078 3823 c7 -3 16 -2 19 1 4 3 -2 6 -13 5 -11 0 -14 -3 -6 -6z"/>
<path d="M5238 3823 c18 -2 45 -2 60 0 15 2 0 4 -33 4 -33 0 -45 -2 -27 -4z"/>
<path d="M5438 3823 c34 -2 88 -2 120 0 31 2 3 3 -63 3 -66 0 -92 -1 -57 -3z"/>
<path d="M5628 3823 c7 -3 16 -2 19 1 4 3 -2 6 -13 5 -11 0 -14 -3 -6 -6z"/>
<path d="M8598 6313 c7 -3 16 -2 19 1 4 3 -2 6 -13 5 -11 0 -14 -3 -6 -6z"/>
<path d="M8748 6313 c12 -2 32 -2 45 0 12 2 2 4 -23 4 -25 0 -35 -2 -22 -4z"/>
<path d="M8903 6289 c9 -5 18 -20 18 -32 1 -18 2 -18 6 -4 5 20 -13 47 -31 47
-6 0 -3 -5 7 -11z"/>
<path d="M8282 6210 c-34 -22 -62 -42 -62 -45 0 -4 117 68 129 80 14 14 -13 0
-67 -35z"/>
<path d="M8933 6170 c0 -36 2 -50 4 -32 2 17 2 47 0 65 -2 17 -4 3 -4 -33z"/>
<path d="M7876 6087 c3 -10 9 -15 12 -12 3 3 0 11 -7 18 -10 9 -11 8 -5 -6z"/>
<path d="M8090 6080 c-9 -6 -10 -10 -3 -10 6 0 15 5 18 10 8 12 4 12 -15 0z"/>
<path d="M8008 6063 c12 -2 30 -2 40 0 9 3 -1 5 -23 4 -22 0 -30 -2 -17 -4z"/>
<path d="M7920 5995 c0 -5 5 -17 10 -25 5 -8 10 -10 10 -5 0 6 -5 17 -10 25
-5 8 -10 11 -10 5z"/>
<path d="M8816 5842 c-36 -42 -36 -44 -7 -17 28 25 58 66 49 65 -2 -1 -21 -22
-42 -48z"/>
<path d="M8263 5848 c-15 -20 -25 -38 -20 -38 3 0 12 11 21 25 17 26 16 35 -1
13z"/>
<path d="M8744 5768 l-19 -23 23 19 c21 18 27 26 19 26 -2 0 -12 -10 -23 -22z"/>
<path d="M8382 5745 c-1 -22 -5 -51 -7 -65 l-6 -25 11 25 c6 13 9 42 7 65 l-4
40 -1 -40z"/>
<path d="M7992 5745 c0 -16 4 -43 8 -60 l8 -30 0 30 c0 17 -4 44 -8 60 l-8 30
0 -30z"/>
<path d="M8164 5738 l-19 -23 23 19 c21 18 27 26 19 26 -2 0 -12 -10 -23 -22z"/>
<path d="M7990 5639 c0 -5 5 -7 10 -4 6 3 10 8 10 11 0 2 -4 4 -10 4 -5 0 -10
-5 -10 -11z"/>
<path d="M8478 5633 c7 -3 16 -2 19 1 4 3 -2 6 -13 5 -11 0 -14 -3 -6 -6z"/>
<path d="M8438 5623 c7 -3 16 -2 19 1 4 3 -2 6 -13 5 -11 0 -14 -3 -6 -6z"/>
<path d="M4322 3465 c-21 -33 -45 -115 -25 -88 5 7 13 9 19 5 14 -10 15 -55 1
-64 -16 -10 15 -73 45 -89 20 -11 22 -11 10 4 -11 13 -10 16 7 22 11 3 22 14
24 23 3 12 5 10 6 -6 0 -13 5 -20 11 -17 6 4 10 3 9 -2 -4 -22 2 -44 10 -39 5
4 12 0 14 -6 3 -8 6 -6 6 5 1 11 6 15 12 11 8 -5 8 -1 0 14 -6 11 -11 34 -11
49 0 16 -6 35 -12 42 -11 10 -9 11 7 5 l20 -7 -20 23 c-11 13 -14 20 -7 16 18
-11 14 5 -8 34 -21 26 -26 45 -11 35 5 -3 11 0 14 7 2 7 3 4 1 -8 -2 -13 5
-29 19 -40 12 -10 16 -12 10 -4 -7 8 -13 21 -13 30 0 13 1 13 10 0 8 -12 10
-12 10 5 0 11 -4 27 -10 35 -6 9 -5 17 3 22 7 4 -9 8 -35 8 -35 0 -48 -4 -48
-14 0 -8 5 -18 10 -21 6 -3 10 -12 10 -18 0 -7 -5 -4 -11 6 -7 11 -18 16 -35
13 -26 -5 -32 12 -12 32 7 7 8 12 3 12 -6 0 -20 -16 -33 -35z"/>
<path d="M6815 2669 c-4 -6 -5 -12 -2 -15 2 -3 7 2 10 11 7 17 1 20 -8 4z"/>
<path d="M11834 8775 c0 -55 1 -76 3 -47 2 29 2 74 0 100 -2 26 -3 2 -3 -53z"/>
<path d="M11853 7620 c0 -41 2 -58 4 -37 2 20 2 54 0 75 -2 20 -4 3 -4 -38z"/>
<path d="M11904 7535 c0 -82 2 -115 3 -72 2 43 2 110 0 150 -1 40 -3 5 -3 -78z"/>
<path d="M704 3235 c0 -88 2 -123 3 -77 2 46 2 118 0 160 -1 42 -3 5 -3 -83z"/>
<path d="M713 3010 c0 -36 2 -50 4 -32 2 17 2 47 0 65 -2 17 -4 3 -4 -33z"/>
</g>
</svg>
